ffmpeg started on 2025-06-16 at 16:17:29
Report written to "D:\Convert\FFMetrics\reports\ssim_report-6.txt"
Log level: 32
Command line:
ffmpeg -hide_banner -nostdin -i "G:\\\xc0\xed\xe8\xec\xe5\\[\xd2\xee\xef]\\\xd0\xfb\xf6\xe0\xf0\xfc-\xe2\xe0\xec\xef\xe8\xf0\\\xd2\xc2-1\\[JamClub] Vampire Knight - 04_HEVC.mkv" -i "G:\\\xc0\xed\xe8\xec\xe5\\[\xd2\xee\xef]\\\xd0\xfb\xf6\xe0\xf0\xfc-\xe2\xe0\xec\xef\xe8\xf0\\\xd2\xc2-1\\[JamClub] Vampire Knight - 04.mp4" -lavfi "[0:v]settb=AVTB,setpts=PTS-STARTPTS,format=pix_fmts=yuv420p10,fps=24000/1001,scale=1920:1080:flags=bicubic[main];[1:v]settb=AVTB,setpts=PTS-STARTPTS,format=pix_fmts=yuv420p,fps=24000/1001,scale=1920:1080:flags=bicubic[ref];[main][ref]ssim=eof_action=endall:stats_file='D\\:/Convert/FFMetrics/logs/ssim_logfile-6.txt'" -f null -
Input #0, matroska,webm, from 'G:\Аниме\[Топ]\Рыцарь-вампир\ТВ-1\[JamClub] Vampire Knight - 04_HEVC.mkv':
  Metadata:
    COMPATIBLE_BRANDS: isomiso2avc1mp41
    MAJOR_BRAND     : isom
    MINOR_VERSION   : 512
    ENCODER         : Lavf61.7.100
  Duration: 00:24:21.18, start: -0.001000, bitrate: 945 kb/s
  Stream #0:0: Video: hevc (Main 10), yuv420p10le(tv, bt709, progressive), 1920x1080 [SAR 1:1 DAR 16:9], 23.98 fps, 23.98 tbr, 1k tbn (default)
      Metadata:
        HANDLER_NAME    : VideoHandler
        VENDOR_ID       : [0][0][0][0]
        ENCODER         : Lavc61.19.100 libx265
        BPS             : 746521
        DURATION        : 00:24:21.084708333
        NUMBER_OF_FRAMES: 43656
        NUMBER_OF_BYTES : 136341237
        _STATISTICS_WRITING_APP: mkvpropedit v66.0.0 ('Josie') 64-bit
        _STATISTICS_WRITING_DATE_UTC: 2025-06-16 07:43:27
        _STATISTICS_TAGS: BPS DURATION NUMBER_OF_FRAMES NUMBER_OF_BYTES
  Stream #0:1(eng): Audio: aac (LC), 48000 Hz, stereo, fltp (default)
      Metadata:
        HANDLER_NAME    : SoundHandler
        VENDOR_ID       : [0][0][0][0]
        ENCODER         : Lavc61.19.100 aac
        BPS             : 194518
        DURATION        : 00:24:21.136000000
        NUMBER_OF_FRAMES: 68492
        NUMBER_OF_BYTES : 35527225
        _STATISTICS_WRITING_APP: mkvpropedit v66.0.0 ('Josie') 64-bit
        _STATISTICS_WRITING_DATE_UTC: 2025-06-16 07:43:27
        _STATISTICS_TAGS: BPS DURATION NUMBER_OF_FRAMES NUMBER_OF_BYTES
Input #1, mov,mp4,m4a,3gp,3g2,mj2, from 'G:\Аниме\[Топ]\Рыцарь-вампир\ТВ-1\[JamClub] Vampire Knight - 04.mp4':
  Metadata:
    major_brand     : isom
    minor_version   : 512
    compatible_brands: isomiso2avc1mp41
    encoder         : Lavf60.16.100
  Duration: 00:24:21.16, start: 0.000000, bitrate: 3689 kb/s
  Stream #1:0[0x1](und): Video: h264 (High) (avc1 / 0x31637661), yuv420p(progressive), 1920x1080 [SAR 1:1 DAR 16:9], 3489 kb/s, 29.88 fps, 23.98 tbr, 90k tbn (default)
      Metadata:
        handler_name    : VideoHandler
        vendor_id       : [0][0][0][0]
  Stream #1:1[0x2](eng): Audio: aac (LC) (mp4a / 0x6134706D), 48000 Hz, stereo, fltp, 191 kb/s (default)
      Metadata:
        handler_name    : SoundHandler
        vendor_id       : [0][0][0][0]
Stream mapping:
  Stream #0:0 (hevc) -> settb:default
  Stream #1:0 (h264) -> settb:default
  ssim:default -> Stream #0:0 (wrapped_avframe)
  Stream #0:1 -> #0:1 (aac (native) -> pcm_s16le (native))
Output #0, null, to 'pipe:':
  Metadata:
    COMPATIBLE_BRANDS: isomiso2avc1mp41
    MAJOR_BRAND     : isom
    MINOR_VERSION   : 512
    encoder         : Lavf61.7.100
  Stream #0:0: Video: wrapped_avframe, yuv420p10le(tv, bt709, progressive), 1920x1080 [SAR 1:1 DAR 16:9], q=2-31, 200 kb/s, 23.98 fps, 23.98 tbn
      Metadata:
        encoder         : Lavc61.19.100 wrapped_avframe
  Stream #0:1(eng): Audio: pcm_s16le, 48000 Hz, stereo, s16, 1536 kb/s (default)
      Metadata:
        HANDLER_NAME    : SoundHandler
        VENDOR_ID       : [0][0][0][0]
        _STATISTICS_TAGS: BPS DURATION NUMBER_OF_FRAMES NUMBER_OF_BYTES
        BPS             : 194518
        DURATION        : 00:24:21.136000000
        NUMBER_OF_FRAMES: 68492
        NUMBER_OF_BYTES : 35527225
        _STATISTICS_WRITING_APP: mkvpropedit v66.0.0 ('Josie') 64-bit
        _STATISTICS_WRITING_DATE_UTC: 2025-06-16 07:43:27
        encoder         : Lavc61.19.100 pcm_s16le
frame=  119 fps=0.0 q=-0.0 size=N/A time=00:00:04.96 bitrate=N/A speed=9.73x    frame=  285 fps=280 q=-0.0 size=N/A time=00:00:11.88 bitrate=N/A speed=11.7x    frame=  485 fps=315 q=-0.0 size=N/A time=00:00:20.22 bitrate=N/A speed=13.1x    frame=  707 fps=345 q=-0.0 size=N/A time=00:00:29.48 bitrate=N/A speed=14.4x    frame=  918 fps=356 q=-0.0 size=N/A time=00:00:38.28 bitrate=N/A speed=14.8x    frame= 1155 fps=372 q=-0.0 size=N/A time=00:00:48.17 bitrate=N/A speed=15.5x    frame= 1342 fps=371 q=-0.0 size=N/A time=00:00:55.97 bitrate=N/A speed=15.5x    frame= 1505 fps=364 q=-0.0 size=N/A time=00:01:02.77 bitrate=N/A speed=15.2x    frame= 1657 fps=357 q=-0.0 size=N/A time=00:01:09.11 bitrate=N/A speed=14.9x    frame= 1845 fps=357 q=-0.0 size=N/A time=00:01:16.95 bitrate=N/A speed=14.9x    frame= 2017 fps=356 q=-0.0 size=N/A time=00:01:24.12 bitrate=N/A speed=14.8x    frame= 2213 fps=357 q=-0.0 size=N/A time=00:01:32.30 bitrate=N/A speed=14.9x    frame= 2366 fps=353 q=-0.0 size=N/A time=00:01:38.68 bitrate=N/A speed=14.7x    frame= 2548 fps=353 q=-0.0 size=N/A time=00:01:46.27 bitrate=N/A speed=14.7x    frame= 2712 fps=350 q=-0.0 size=N/A time=00:01:53.11 bitrate=N/A speed=14.6x    frame= 2892 fps=350 q=-0.0 size=N/A time=00:02:00.62 bitrate=N/A speed=14.6x    frame= 3082 fps=351 q=-0.0 size=N/A time=00:02:08.54 bitrate=N/A speed=14.6x    frame= 3277 fps=353 q=-0.0 size=N/A time=00:02:16.67 bitrate=N/A speed=14.7x    frame= 3500 fps=357 q=-0.0 size=N/A time=00:02:25.97 bitrate=N/A speed=14.9x    frame= 3723 fps=361 q=-0.0 size=N/A time=00:02:35.28 bitrate=N/A speed=  15x    frame= 3925 fps=362 q=-0.0 size=N/A time=00:02:43.70 bitrate=N/A speed=15.1x    frame= 4145 fps=365 q=-0.0 size=N/A time=00:02:52.88 bitrate=N/A speed=15.2x    frame= 4378 fps=369 q=-0.0 size=N/A time=00:03:02.64 bitrate=N/A speed=15.4x    frame= 4600 fps=372 q=-0.0 size=N/A time=00:03:11.85 bitrate=N/A speed=15.5x    frame= 4833 fps=375 q=-0.0 size=N/A time=00:03:21.57 bitrate=N/A speed=15.6x    frame= 5052 fps=376 q=-0.0 size=N/A time=00:03:30.71 bitrate=N/A speed=15.7x    frame= 5278 fps=379 q=-0.0 size=N/A time=00:03:40.13 bitrate=N/A speed=15.8x    frame= 5509 fps=381 q=-0.0 size=N/A time=00:03:49.77 bitrate=N/A speed=15.9x    frame= 5735 fps=383 q=-0.0 size=N/A time=00:03:59.19 bitrate=N/A speed=  16x    frame= 5951 fps=384 q=-0.0 size=N/A time=00:04:08.20 bitrate=N/A speed=  16x    frame= 6166 fps=386 q=-0.0 size=N/A time=00:04:17.17 bitrate=N/A speed=16.1x    frame= 6406 fps=388 q=-0.0 size=N/A time=00:04:27.18 bitrate=N/A speed=16.2x    frame= 6644 fps=390 q=-0.0 size=N/A time=00:04:37.11 bitrate=N/A speed=16.3x    frame= 6853 fps=391 q=-0.0 size=N/A time=00:04:45.86 bitrate=N/A speed=16.3x    frame= 7075 fps=392 q=-0.0 size=N/A time=00:04:55.08 bitrate=N/A speed=16.3x    frame= 7297 fps=393 q=-0.0 size=N/A time=00:05:04.34 bitrate=N/A speed=16.4x    frame= 7528 fps=394 q=-0.0 size=N/A time=00:05:13.98 bitrate=N/A speed=16.4x    frame= 7751 fps=395 q=-0.0 size=N/A time=00:05:23.28 bitrate=N/A speed=16.5x    frame= 7961 fps=395 q=-0.0 size=N/A time=00:05:32.04 bitrate=N/A speed=16.5x    frame= 8193 fps=397 q=-0.0 size=N/A time=00:05:41.71 bitrate=N/A speed=16.6x    frame= 8414 fps=397 q=-0.0 size=N/A time=00:05:50.93 bitrate=N/A speed=16.6x    frame= 8641 fps=399 q=-0.0 size=N/A time=00:06:00.40 bitrate=N/A speed=16.6x    frame= 8859 fps=399 q=-0.0 size=N/A time=00:06:09.49 bitrate=N/A speed=16.6x    frame= 9083 fps=400 q=-0.0 size=N/A time=00:06:18.83 bitrate=N/A speed=16.7x    frame= 9324 fps=401 q=-0.0 size=N/A time=00:06:28.88 bitrate=N/A speed=16.7x    frame= 9541 fps=402 q=-0.0 size=N/A time=00:06:37.93 bitrate=N/A speed=16.8x    frame= 9755 fps=402 q=-0.0 size=N/A time=00:06:46.86 bitrate=N/A speed=16.8x    frame= 9979 fps=403 q=-0.0 size=N/A time=00:06:56.20 bitrate=N/A speed=16.8x    frame=10216 fps=404 q=-0.0 size=N/A time=00:07:06.09 bitrate=N/A speed=16.8x    frame=10460 fps=405 q=-0.0 size=N/A time=00:07:16.26 bitrate=N/A speed=16.9x    frame=10699 fps=406 q=-0.0 size=N/A time=00:07:26.23 bitrate=N/A speed=  17x    frame=10914 fps=407 q=-0.0 size=N/A time=00:07:35.20 bitrate=N/A speed=  17x    frame=11137 fps=407 q=-0.0 size=N/A time=00:07:44.50 bitrate=N/A speed=  17x    frame=11363 fps=408 q=-0.0 size=N/A time=00:07:53.93 bitrate=N/A speed=  17x    frame=11583 fps=408 q=-0.0 size=N/A time=00:08:03.10 bitrate=N/A speed=  17x    frame=11777 fps=407 q=-0.0 size=N/A time=00:08:11.19 bitrate=N/A speed=  17x    frame=11990 fps=408 q=-0.0 size=N/A time=00:08:20.08 bitrate=N/A speed=  17x    frame=12225 fps=409 q=-0.0 size=N/A time=00:08:29.88 bitrate=N/A speed=  17x    frame=12466 fps=409 q=-0.0 size=N/A time=00:08:39.93 bitrate=N/A speed=17.1x    frame=12697 fps=410 q=-0.0 size=N/A time=00:08:49.57 bitrate=N/A speed=17.1x    frame=12929 fps=411 q=-0.0 size=N/A time=00:08:59.24 bitrate=N/A speed=17.1x    frame=13134 fps=411 q=-0.0 size=N/A time=00:09:07.79 bitrate=N/A speed=17.1x    frame=13365 fps=411 q=-0.0 size=N/A time=00:09:17.43 bitrate=N/A speed=17.1x    frame=13616 fps=412 q=-0.0 size=N/A time=00:09:27.90 bitrate=N/A speed=17.2x    frame=13843 fps=413 q=-0.0 size=N/A time=00:09:37.36 bitrate=N/A speed=17.2x    frame=14081 fps=414 q=-0.0 size=N/A time=00:09:47.29 bitrate=N/A speed=17.2x    frame=14316 fps=414 q=-0.0 size=N/A time=00:09:57.09 bitrate=N/A speed=17.3x    frame=14541 fps=414 q=-0.0 size=N/A time=00:10:06.48 bitrate=N/A speed=17.3x    frame=14779 fps=415 q=-0.0 size=N/A time=00:10:16.40 bitrate=N/A speed=17.3x    frame=15024 fps=416 q=-0.0 size=N/A time=00:10:26.62 bitrate=N/A speed=17.3x    frame=15242 fps=416 q=-0.0 size=N/A time=00:10:35.71 bitrate=N/A speed=17.4x    frame=15469 fps=416 q=-0.0 size=N/A time=00:10:45.18 bitrate=N/A speed=17.4x    frame=15698 fps=417 q=-0.0 size=N/A time=00:10:54.73 bitrate=N/A speed=17.4x    frame=15939 fps=417 q=-0.0 size=N/A time=00:11:04.78 bitrate=N/A speed=17.4x    frame=16180 fps=418 q=-0.0 size=N/A time=00:11:14.84 bitrate=N/A speed=17.4x    frame=16413 fps=419 q=-0.0 size=N/A time=00:11:24.55 bitrate=N/A speed=17.5x    frame=16637 fps=419 q=-0.0 size=N/A time=00:11:33.90 bitrate=N/A speed=17.5x    frame=16846 fps=419 q=-0.0 size=N/A time=00:11:42.61 bitrate=N/A speed=17.5x    frame=17046 fps=418 q=-0.0 size=N/A time=00:11:50.96 bitrate=N/A speed=17.4x    frame=17265 fps=418 q=-0.0 size=N/A time=00:12:00.09 bitrate=N/A speed=17.4x    frame=17483 fps=418 q=-0.0 size=N/A time=00:12:09.18 bitrate=N/A speed=17.5x    frame=17722 fps=419 q=-0.0 size=N/A time=00:12:19.15 bitrate=N/A speed=17.5x    frame=17961 fps=419 q=-0.0 size=N/A time=00:12:29.12 bitrate=N/A speed=17.5x    frame=18204 fps=420 q=-0.0 size=N/A time=00:12:39.25 bitrate=N/A speed=17.5x    frame=18451 fps=421 q=-0.0 size=N/A time=00:12:49.56 bitrate=N/A speed=17.5x    frame=18673 fps=421 q=-0.0 size=N/A time=00:12:58.81 bitrate=N/A speed=17.6x    frame=18897 fps=421 q=-0.0 size=N/A time=00:13:08.16 bitrate=N/A speed=17.6x    frame=19133 fps=421 q=-0.0 size=N/A time=00:13:18.00 bitrate=N/A speed=17.6x    frame=19321 fps=421 q=-0.0 size=N/A time=00:13:25.84 bitrate=N/A speed=17.5x    frame=19546 fps=421 q=-0.0 size=N/A time=00:13:35.23 bitrate=N/A speed=17.6x    frame=19757 fps=421 q=-0.0 size=N/A time=00:13:44.03 bitrate=N/A speed=17.6x    frame=19995 fps=421 q=-0.0 size=N/A time=00:13:53.95 bitrate=N/A speed=17.6x    frame=20216 fps=421 q=-0.0 size=N/A time=00:14:03.17 bitrate=N/A speed=17.6x    frame=20453 fps=422 q=-0.0 size=N/A time=00:14:13.06 bitrate=N/A speed=17.6x    frame=20672 fps=422 q=-0.0 size=N/A time=00:14:22.19 bitrate=N/A speed=17.6x    frame=20901 fps=422 q=-0.0 size=N/A time=00:14:31.74 bitrate=N/A speed=17.6x    frame=21133 fps=422 q=-0.0 size=N/A time=00:14:41.42 bitrate=N/A speed=17.6x    frame=21358 fps=422 q=-0.0 size=N/A time=00:14:50.80 bitrate=N/A speed=17.6x    frame=21592 fps=423 q=-0.0 size=N/A time=00:15:00.60 bitrate=N/A speed=17.6x    frame=21814 fps=423 q=-0.0 size=N/A time=00:15:09.82 bitrate=N/A speed=17.6x    frame=22037 fps=423 q=-0.0 size=N/A time=00:15:19.12 bitrate=N/A speed=17.6x    frame=22270 fps=423 q=-0.0 size=N/A time=00:15:28.84 bitrate=N/A speed=17.7x    frame=22517 fps=424 q=-0.0 size=N/A time=00:15:39.14 bitrate=N/A speed=17.7x    frame=22761 fps=424 q=-0.0 size=N/A time=00:15:49.32 bitrate=N/A speed=17.7x    frame=22978 fps=424 q=-0.0 size=N/A time=00:15:58.37 bitrate=N/A speed=17.7x    frame=23195 fps=424 q=-0.0 size=N/A time=00:16:07.42 bitrate=N/A speed=17.7x    frame=23408 fps=424 q=-0.0 size=N/A time=00:16:16.30 bitrate=N/A speed=17.7x    frame=23623 fps=424 q=-0.0 size=N/A time=00:16:25.27 bitrate=N/A speed=17.7x    frame=23854 fps=424 q=-0.0 size=N/A time=00:16:34.91 bitrate=N/A speed=17.7x    frame=24077 fps=424 q=-0.0 size=N/A time=00:16:44.21 bitrate=N/A speed=17.7x    frame=24307 fps=424 q=-0.0 size=N/A time=00:16:53.80 bitrate=N/A speed=17.7x    frame=24549 fps=425 q=-0.0 size=N/A time=00:17:03.89 bitrate=N/A speed=17.7x    frame=24782 fps=425 q=-0.0 size=N/A time=00:17:13.61 bitrate=N/A speed=17.7x    frame=25007 fps=425 q=-0.0 size=N/A time=00:17:23.00 bitrate=N/A speed=17.7x    frame=25227 fps=425 q=-0.0 size=N/A time=00:17:32.17 bitrate=N/A speed=17.7x    frame=25444 fps=425 q=-0.0 size=N/A time=00:17:41.22 bitrate=N/A speed=17.7x    frame=25682 fps=425 q=-0.0 size=N/A time=00:17:51.15 bitrate=N/A speed=17.7x    frame=25914 fps=426 q=-0.0 size=N/A time=00:18:00.82 bitrate=N/A speed=17.8x    frame=26137 fps=426 q=-0.0 size=N/A time=00:18:10.13 bitrate=N/A speed=17.8x    frame=26363 fps=426 q=-0.0 size=N/A time=00:18:19.55 bitrate=N/A speed=17.8x    frame=26573 fps=426 q=-0.0 size=N/A time=00:18:28.31 bitrate=N/A speed=17.8x    frame=26788 fps=426 q=-0.0 size=N/A time=00:18:37.28 bitrate=N/A speed=17.8x    frame=27019 fps=426 q=-0.0 size=N/A time=00:18:46.91 bitrate=N/A speed=17.8x    frame=27248 fps=426 q=-0.0 size=N/A time=00:18:56.46 bitrate=N/A speed=17.8x    frame=27469 fps=426 q=-0.0 size=N/A time=00:19:05.68 bitrate=N/A speed=17.8x    frame=27703 fps=426 q=-0.0 size=N/A time=00:19:15.44 bitrate=N/A speed=17.8x    frame=27933 fps=426 q=-0.0 size=N/A time=00:19:25.03 bitrate=N/A speed=17.8x    frame=28169 fps=427 q=-0.0 size=N/A time=00:19:34.88 bitrate=N/A speed=17.8x    frame=28410 fps=427 q=-0.0 size=N/A time=00:19:44.93 bitrate=N/A speed=17.8x    frame=28621 fps=427 q=-0.0 size=N/A time=00:19:53.73 bitrate=N/A speed=17.8x    frame=28858 fps=427 q=-0.0 size=N/A time=00:20:03.61 bitrate=N/A speed=17.8x    frame=29072 fps=427 q=-0.0 size=N/A time=00:20:12.54 bitrate=N/A speed=17.8x    frame=29286 fps=427 q=-0.0 size=N/A time=00:20:21.47 bitrate=N/A speed=17.8x    frame=29504 fps=427 q=-0.0 size=N/A time=00:20:30.56 bitrate=N/A speed=17.8x    frame=29689 fps=426 q=-0.0 size=N/A time=00:20:38.27 bitrate=N/A speed=17.8x    frame=29872 fps=426 q=-0.0 size=N/A time=00:20:45.91 bitrate=N/A speed=17.8x    frame=30075 fps=426 q=-0.0 size=N/A time=00:20:54.37 bitrate=N/A speed=17.8x    frame=30297 fps=426 q=-0.0 size=N/A time=00:21:03.63 bitrate=N/A speed=17.8x    frame=30522 fps=426 q=-0.0 size=N/A time=00:21:13.02 bitrate=N/A speed=17.8x    frame=30739 fps=426 q=-0.0 size=N/A time=00:21:22.07 bitrate=N/A speed=17.8x    frame=30966 fps=426 q=-0.0 size=N/A time=00:21:31.54 bitrate=N/A speed=17.8x    frame=31176 fps=426 q=-0.0 size=N/A time=00:21:40.29 bitrate=N/A speed=17.8x    frame=31424 fps=426 q=-0.0 size=N/A time=00:21:50.64 bitrate=N/A speed=17.8x    frame=31657 fps=426 q=-0.0 size=N/A time=00:22:00.36 bitrate=N/A speed=17.8x    frame=31887 fps=426 q=-0.0 size=N/A time=00:22:09.95 bitrate=N/A speed=17.8x    frame=32121 fps=427 q=-0.0 size=N/A time=00:22:19.71 bitrate=N/A speed=17.8x    frame=32330 fps=426 q=-0.0 size=N/A time=00:22:28.43 bitrate=N/A speed=17.8x    frame=32573 fps=427 q=-0.0 size=N/A time=00:22:38.56 bitrate=N/A speed=17.8x    frame=32811 fps=427 q=-0.0 size=N/A time=00:22:48.49 bitrate=N/A speed=17.8x    frame=33028 fps=427 q=-0.0 size=N/A time=00:22:57.54 bitrate=N/A speed=17.8x    frame=33228 fps=427 q=-0.0 size=N/A time=00:23:05.88 bitrate=N/A speed=17.8x    frame=33440 fps=427 q=-0.0 size=N/A time=00:23:14.72 bitrate=N/A speed=17.8x    frame=33667 fps=427 q=-0.0 size=N/A time=00:23:24.19 bitrate=N/A speed=17.8x    frame=33910 fps=427 q=-0.0 size=N/A time=00:23:34.32 bitrate=N/A speed=17.8x    frame=34151 fps=427 q=-0.0 size=N/A time=00:23:44.38 bitrate=N/A speed=17.8x    frame=34371 fps=427 q=-0.0 size=N/A time=00:23:53.55 bitrate=N/A speed=17.8x    frame=34579 fps=427 q=-0.0 size=N/A time=00:24:02.23 bitrate=N/A speed=17.8x    frame=34793 fps=427 q=-0.0 size=N/A time=00:24:11.15 bitrate=N/A speed=17.8x    [Parsed_ssim_10 @ 000002034230d480] SSIM Y:0.994715 (22.769304) U:0.994934 (22.953086) V:0.995359 (23.333980) All:0.994859 (22.889186)
[out#0/null @ 000002034074f040] video:15052KiB audio:273968KiB subtitle:0KiB other streams:0KiB global headers:0KiB muxing overhead: unknown
frame=35031 fps=427 q=-0.0 Lsize=N/A time=00:24:21.08 bitrate=N/A speed=17.8x    
